<svg xmlns="http://www.w3.org/2000/svg" id="Layer_2" version="1.1" viewBox="0 0 26 26"><defs><style>.st0{fill-rule:evenodd}</style></defs><g id="Capa_1"><g><path d="M13,2.5C7.2,2.5,2.5,7.2,2.5,13s.8,4.6,2.1,6.3c.3.4.2.9-.2,1.2s-.9.2-1.2-.2h0c-1.6-2.1-2.4-4.7-2.4-7.3C.8,6.2,6.2.8,13,.8s12.2,5.5,12.2,12.2-.9,5.3-2.4,7.3c-.3.4-.8.5-1.2.2s-.5-.8-.2-1.2c1.4-1.8,2.1-4,2.1-6.3,0-5.8-4.7-10.5-10.5-10.5Z" class="st0"/><path d="M13,7c-3.3,0-6,2.7-6,6s.5,2.9,1.5,4c.3.4.3.9,0,1.2-.3.3-.9.3-1.2,0-2.8-3.2-2.6-8,.6-10.9,3.2-2.8,8-2.6,10.9.6,2.6,2.9,2.6,7.3,0,10.2-.3.3-.9.4-1.2,0-.3-.3-.4-.8,0-1.2,2.2-2.5,2-6.2-.5-8.4-1.1-1-2.5-1.5-4-1.5h0Z" class="st0"/><g><path d="M13,11.6c-.8,0-1.4.6-1.4,1.4s.6,1.4,1.4,1.4,1.4-.6,1.4-1.4-.6-1.4-1.4-1.4ZM9.9,13c0-1.7,1.4-3.1,3.1-3.1s3.1,1.4,3.1,3.1-1.4,3.1-3.1,3.1-3.1-1.4-3.1-3.1Z" class="st0"/><path d="M13,14.4c.5,0,.9.4.9.9v5.7c0,.5-.4.9-.9.9s-.9-.4-.9-.9v-5.7c0-.5.4-.9.9-.9Z" class="st0"/><path d="M11.5,20.1h3c.3,0,.5,0,.7,0,.4,0,.8.2,1.2.4.2.1.4.3.6.5h0c.3.3.6.6.8.8s.4.5.5.8c.4,1-.2,2-1.1,2.4-.3.1-.6.2-.9.2-.3,0-.7,0-1.2,0h-4.2c-.5,0-.9,0-1.2,0-.3,0-.6,0-.9-.2-.9-.4-1.4-1.4-1.1-2.4.1-.3.3-.6.5-.8.3-.3.6-.5.9-.8h0c.2-.2.3-.3.5-.5.3-.2.8-.4,1.2-.4.2,0,.4,0,.7,0h0ZM11.6,21.8c-.3,0-.4,0-.5,0-.2,0-.3,0-.5.2,0,0-.1,0-.3.3-.4.3-.6.6-.8.7,0,0-.1.1-.2.2,0,0,0,0,0,.1,0,0,0,.1.2.2,0,0,0,0,.3,0,.3,0,.6,0,1.1,0h4.1c.5,0,.9,0,1.1,0,.2,0,.3,0,.3,0h0c0,0,.1,0,.2-.2,0,0,0,0,0-.1,0,0-.1-.1-.2-.2-.2-.2-.4-.4-.8-.7-.1-.1-.2-.2-.3-.3-.1,0-.3-.2-.5-.2-.2,0-.3,0-.5,0h-2.9,0Z" class="st0"/></g></g></g></svg>