<svg xmlns="http://www.w3.org/2000/svg" id="Layer_2" data-name="Layer 2" viewBox="0 0 38.22 37.93"><g id="Layer_1-2" data-name="Layer 1"><g><path d="M37.4,0c-.45,0-.82.37-.82.82v11.46h-1.64v-2.09c0-.55-.45-1-1-1H0v2h0v1.5h0v2h0v1.5h0v2h0v1.5h0v2h0v1.5h0v2h4.93v4.88H0v2h0v5.86h2s4.8,0,4.8,0h0s27.12,0,27.12,0c.55,0,1-.45,1-1v-17.38h2.46c.45,0,.82-.37.82-.83V.82c0-.45-.37-.82-.82-.82ZM2.01,11.19h2.92v1.5h-2.92v-1.5ZM2.01,14.69h2.92v1.5h-2.92v-1.5ZM2.01,18.19h2.92v1.5h-2.92v-1.5ZM2.01,23.19v-1.5h2.92v1.5h-2.92ZM2.01,32.07h2.92v3.85h-2.92v-3.85ZM32.93,35.92H6.93V11.19h26v24.72ZM34.93,14.17h1.64v3.47h-1.64v-3.47Z"/><path d="M10.36,27.54c-.52,0-.94.42-.94.94s.42.94.94.94h1.56v.87c0,.49.4.89.9.89h1.51s0,.02,0,.03v2.07c0,.52.42.94.94.94s.94-.42.94-.94v-2.07s0-.02,0-.03h3.1s0,.02,0,.03v2.07c0,.52.42.94.94.94s.94-.42.94-.94v-2.07s0-.02,0-.03h3.1s0,.02,0,.03v2.07c0,.52.42.94.94.94s.94-.42.94-.94v-2.07s0-.02,0-.03h.59c.49,0,.89-.4.89-.89v-.86h1.88c.52,0,.94-.42.94-.94s-.42-.94-.94-.94h-1.88v-3.08h1.88c.52,0,.94-.42.94-.94s-.42-.94-.94-.94h-1.88v-3.08h1.88c.52,0,.94-.42.94-.94s-.42-.94-.94-.94h-1.88v-1.23c0-.49-.4-.89-.89-.89h-.59v-1.66c0-.52-.42-.94-.94-.94s-.94.42-.94.94v1.66h-3.08v-1.66c0-.52-.42-.94-.94-.94s-.94.42-.94.94v1.66h-3.08v-1.66c0-.52-.42-.94-.94-.94s-.94.42-.94.94v1.66h-1.5c-.49,0-.9.4-.9.89v1.22h-1.56c-.52,0-.94.42-.94.94s.42.94.94.94h1.56v3.08h-1.56c-.52,0-.94.42-.94.94s.42.94.94.94h1.56v3.08h-1.56ZM13.71,17.27h12.13v12.13h-12.13v-12.13Z"/></g></g></svg>