<svg xmlns="http://www.w3.org/2000/svg" version="1.1" xmlns:xlink="http://www.w3.org/1999/xlink" width="512" height="512" x="0" y="0" viewBox="0 0 128 128" style="enable-background:new 0 0 512 512" xml:space="preserve"><g><path d="M43.912 76.613a7.475 7.475 0 1 0 7.475 7.475 7.484 7.484 0 0 0-7.475-7.475Zm0 11.449a3.975 3.975 0 1 1 3.975-3.974 3.979 3.979 0 0 1-3.975 3.974Z" opacity="1" data-original="#000000"></path><path d="M121.693 25.927h-5.429a21.675 21.675 0 0 0-1.448-3.5l3.838-3.839a1.749 1.749 0 0 0 0-2.475l-6.769-6.769a1.749 1.749 0 0 0-2.475 0l-3.839 3.839a21.511 21.511 0 0 0-3.5-1.449V6.307a1.749 1.749 0 0 0-1.75-1.75h-9.573A1.749 1.749 0 0 0 89 6.307v5.429a21.675 21.675 0 0 0-3.5 1.448l-3.839-3.838a1.748 1.748 0 0 0-2.474 0l-6.77 6.769a1.749 1.749 0 0 0 0 2.475l3.838 3.839a21.581 21.581 0 0 0-1.447 3.5h-5.43a1.749 1.749 0 0 0-1.75 1.75v9.575A1.749 1.749 0 0 0 69.378 39h.779L52.545 54.587v-8.106a1.75 1.75 0 0 0-1.75-1.75H37.03a1.75 1.75 0 0 0-1.75 1.75v8.373a30.347 30.347 0 0 0-5.936 2.458l-5.919-5.92a1.749 1.749 0 0 0-2.475 0l-9.733 9.733a1.749 1.749 0 0 0 0 2.475l5.92 5.919a30.257 30.257 0 0 0-2.457 5.936H6.307a1.749 1.749 0 0 0-1.75 1.75V90.97a1.749 1.749 0 0 0 1.75 1.75h8.373a30.282 30.282 0 0 0 2.457 5.936l-5.92 5.919a1.749 1.749 0 0 0 0 2.475l9.733 9.733a1.8 1.8 0 0 0 2.475 0l5.919-5.92a30.282 30.282 0 0 0 5.936 2.457v8.373a1.749 1.749 0 0 0 1.75 1.75H50.8a1.749 1.749 0 0 0 1.75-1.75v-8.373a30.257 30.257 0 0 0 5.936-2.457l5.919 5.92a1.749 1.749 0 0 0 2.475 0l9.733-9.733a1.749 1.749 0 0 0 0-2.475l-5.92-5.919a30.347 30.347 0 0 0 2.458-5.936h8.373a1.75 1.75 0 0 0 1.75-1.75V77.205a1.75 1.75 0 0 0-1.75-1.75h-8.111L89 57.843v.779a1.749 1.749 0 0 0 1.75 1.75h9.574a1.749 1.749 0 0 0 1.75-1.75v-5.43a21.418 21.418 0 0 0 3.5-1.448l3.839 3.839a1.749 1.749 0 0 0 2.475 0l6.769-6.77a1.748 1.748 0 0 0 0-2.474l-3.841-3.839a21.675 21.675 0 0 0 1.448-3.5h5.429a1.749 1.749 0 0 0 1.75-1.75v-9.573a1.749 1.749 0 0 0-1.75-1.75ZM95.535 40.9a8.44 8.44 0 1 1 8.441-8.439 8.449 8.449 0 0 1-8.441 8.439Zm0 3.5c.24 0 .475-.022.712-.036l-5.121 5.787a18.1 18.1 0 0 1-5.02-2.083 1.75 1.75 0 0 0-2.143.26l-3.539 3.539-4.3-4.3 3.539-3.539a1.75 1.75 0 0 0 .26-2.143 18.1 18.1 0 0 1-2.083-5.02l5.787-5.121c-.014.237-.036.472-.036.712A11.953 11.953 0 0 0 95.535 44.4ZM53.2 93.02A12.884 12.884 0 1 1 34.98 74.8l.862-.763A12.885 12.885 0 0 1 53.96 92.158Zm-9.288-25.332c-.319 0-.631.03-.945.048l10.159-8.989a26.818 26.818 0 0 1 4.739 2.246 1.747 1.747 0 0 0 2.144-.26l5.629-5.633 7.262 7.262-5.629 5.629a1.75 1.75 0 0 0-.26 2.144 26.818 26.818 0 0 1 2.246 4.739l-8.993 10.159c.018-.314.048-.626.048-.945a16.419 16.419 0 0 0-16.4-16.4Zm26.776 1.831 5.92-5.919a1.749 1.749 0 0 0 0-2.475l-9.733-9.733a1.8 1.8 0 0 0-2.475 0l-5.919 5.92a30.456 30.456 0 0 0-2.413-1.169l18.893-16.718a21.668 21.668 0 0 0 1.294 3.075l-3.838 3.839a1.748 1.748 0 0 0 0 2.474l6.77 6.77a1.748 1.748 0 0 0 2.474 0l3.839-3.838a21.668 21.668 0 0 0 3.075 1.294L71.857 71.932a30.456 30.456 0 0 0-1.169-2.413Zm1.118 9.436h7.963V89.22h-7.963a1.751 1.751 0 0 0-1.7 1.332 26.807 26.807 0 0 1-3.1 7.488 1.75 1.75 0 0 0 .26 2.144l5.629 5.629-7.258 7.258-5.629-5.63a1.748 1.748 0 0 0-2.144-.259 26.807 26.807 0 0 1-7.488 3.1 1.751 1.751 0 0 0-1.332 1.7v7.963H38.78v-7.965a1.751 1.751 0 0 0-1.332-1.7 26.807 26.807 0 0 1-7.488-3.1 1.75 1.75 0 0 0-2.144.259l-5.629 5.63-7.258-7.258 5.63-5.629a1.752 1.752 0 0 0 .259-2.144 26.807 26.807 0 0 1-3.1-7.488 1.751 1.751 0 0 0-1.7-1.332H8.057V78.955h7.963a1.751 1.751 0 0 0 1.7-1.332 26.807 26.807 0 0 1 3.1-7.488 1.751 1.751 0 0 0-.259-2.144l-5.63-5.629 7.256-7.262 5.629 5.629a1.748 1.748 0 0 0 2.144.26 26.807 26.807 0 0 1 7.488-3.1 1.751 1.751 0 0 0 1.332-1.7v-7.958h10.265v7.963a1.742 1.742 0 0 0 .417 1.121L33.578 71.37c-.207.169-.4.352-.6.53l-.584.518a1.751 1.751 0 0 0-.25.275A16.38 16.38 0 0 0 55.3 95.864a1.722 1.722 0 0 0 .284-.258l.518-.584c.178-.2.361-.393.53-.6l14.053-15.884a1.742 1.742 0 0 0 1.121.417ZM119.943 35.5h-5.006a1.751 1.751 0 0 0-1.7 1.332 18.1 18.1 0 0 1-2.094 5.06 1.75 1.75 0 0 0 .259 2.143l3.539 3.539-4.295 4.3-3.539-3.539a1.747 1.747 0 0 0-2.143-.26 18.094 18.094 0 0 1-5.064 2.092 1.75 1.75 0 0 0-1.332 1.7v5.006H92.5v-2.986l11.552-13.057c.016-.018.026-.039.041-.058a11.927 11.927 0 0 0-16.865-16.866c-.019.016-.04.026-.058.042L74.113 35.5h-2.985v-6.073h5.006a1.75 1.75 0 0 0 1.7-1.332 18.088 18.088 0 0 1 2.095-5.06 1.75 1.75 0 0 0-.26-2.143l-3.539-3.539 4.3-4.3 3.533 3.547a1.749 1.749 0 0 0 2.143.259 18.1 18.1 0 0 1 5.06-2.094 1.751 1.751 0 0 0 1.332-1.7V8.057h6.074v5.006a1.751 1.751 0 0 0 1.332 1.7 18.092 18.092 0 0 1 5.061 2.094 1.745 1.745 0 0 0 2.143-.259l3.539-3.539 4.295 4.3-3.542 3.533a1.75 1.75 0 0 0-.259 2.143 18.086 18.086 0 0 1 2.094 5.06 1.751 1.751 0 0 0 1.7 1.332h5.006Z" opacity="1" data-original="#000000"></path><path d="M95.535 26.945a5.519 5.519 0 1 0 5.52 5.52 5.525 5.525 0 0 0-5.52-5.52Zm0 7.538a2.019 2.019 0 1 1 2.02-2.018 2.02 2.02 0 0 1-2.02 2.018Z" opacity="1" data-original="#000000"></path></g></svg>