<?xml version="1.0" encoding="UTF-8"?>
<svg id="Layer_2" data-name="Layer 2" xmlns="http://www.w3.org/2000/svg" viewBox="0 0 245.33 394.67">
  <defs>
    <style>
      .cls-1 {
        fill-rule: evenodd;
      }
    </style>
  </defs>
  <g id="Layer_1-2" data-name="Layer 1">
    <g>
      <path class="cls-1" d="M213.33,52.37c0-11.25-9.12-20.37-20.37-20.37-9.28,0-17.44,6.12-20.05,15.02l-87,295.74c-9.06,30.77-37.3,51.9-69.38,51.9h-.53c-8.84,0-16-7.16-16-16s7.16-16,16-16h.53c17.89,0,33.63-11.79,38.68-28.95L142.19,37.99C148.81,15.47,169.48,0,192.96,0c28.93,0,52.37,23.47,52.37,52.37v6.29c0,8.84-7.16,16-16,16s-16-7.16-16-16v-6.29Z"/>
      <path class="cls-1" d="M74.67,144c0-8.84,7.16-16,16-16h74.67c8.84,0,16,7.16,16,16s-7.16,16-16,16h-74.67c-8.84,0-16-7.16-16-16Z"/>
    </g>
    <path d="M241.17,360.6c5.17,5.74,4.43,14.46-1.72,19.05-2.71,2.07-6.16,3.22-9.36,3.22-4.19,0-8.37-1.61-11.08-5.05l-25.61-28.47-25.37,28.47c-2.71,3.44-6.9,5.05-11.33,5.05-2.95,0-6.4-1.15-9.11-3.22-6.16-4.59-6.9-13.31-1.97-19.05l29.06-32.37-29.06-32.37c-4.93-5.74-4.19-14.46,1.97-19.06,6.16-4.82,15.27-4.13,20.44,1.61l25.37,28.7,25.61-28.7c5.17-5.74,14.28-6.43,20.44-1.61,6.16,4.59,6.9,13.32,1.72,19.06l-28.82,32.37,28.82,32.37Z"/>
  </g>
</svg>