<?xml version="1.0" encoding="UTF-8"?>
<svg id="Layer_2" data-name="Layer 2" xmlns="http://www.w3.org/2000/svg" viewBox="0 0 406.68 438.62">
  <g id="Layer_1-2" data-name="Layer 1">
    <path d="M385.15,96.49L233.15,8.03c-18.4-10.71-41.25-10.71-59.65,0L21.52,96.49C8.26,104.22.02,118.55,0,133.9v170.77c0,15.35,8.26,29.69,21.53,37.42l152.01,88.46c8.83,5.13,18.68,7.79,28.58,8,.4.04.81.07,1.23.07s.82-.03,1.22-.07c9.9-.2,19.77-2.86,28.61-8l152.01-88.47c13.25-7.74,21.49-22.07,21.49-37.42h0v-170.78c-.02-15.34-8.26-29.67-21.53-37.4ZM203.34,214.13l-71.82-42.25,158.57-104.48,81.78,47.59-168.52,99.13ZM184.91,27.63c5.68-3.31,12.05-4.96,18.42-4.96s12.74,1.65,18.42,4.96l35.43,20.62-159.05,103.99-63.31-37.24L184.91,27.63ZM32.94,322.49c-6.32-3.68-10.26-10.52-10.26-17.83v-170.5l56.5,33.23-.02,72.28,33.89,19.94.1-72.24,78.85,46.38v180.33c-2.44-.79-4.81-1.83-7.07-3.14l-151.99-88.46ZM373.77,322.49l-151.99,88.46c-2.27,1.32-4.65,2.36-7.09,3.15v-180.34l169.32-99.6v170.49c0,7.32-3.93,14.15-10.23,17.83Z"/>
  </g>
</svg>