<svg xmlns="http://www.w3.org/2000/svg" id="Layer_2" data-name="Layer 2" viewBox="0 0 234.67 280.4"><g id="Layer_1-2" data-name="Layer 1"><g><path d="M138.67,280.4h-42.67C43.01,280.34.06,237.39,0,184.4v-42.67c0-29.4,23.91-53.33,53.33-53.33h128c29.42,0,53.33,23.94,53.33,53.33v42.67c0,52.93-43.07,96-96,96ZM53.33,109.73c-17.64,0-32,14.36-32,32v42.67c0,41.17,33.49,74.67,74.67,74.67h42.67c41.17,0,74.67-33.49,74.67-74.67v-42.67c0-17.64-14.36-32-32-32H53.33Z"/><path d="M74.67,109.73c-5.89,0-10.67-4.78-10.67-10.67V13.73c0-5.89,4.78-10.67,10.67-10.67s10.67,4.78,10.67,10.67v85.33c0,5.89-4.78,10.67-10.67,10.67ZM160,106.67c-5.89,0-10.67-4.78-10.67-10.67V10.67c0-5.89,4.78-10.67,10.67-10.67s10.67,4.78,10.67,10.67v85.33c0,5.89-4.78,10.67-10.67,10.67Z"/><path d="M86.22,182.54h27.12c3.69,0,6.68,3,6.68,6.69,0,.37-.03.73-.09,1.09l-7.86,47.13,42.69-68.28h-28.05c-3.7-.01-6.69-3.02-6.68-6.72,0-.43.04-.86.13-1.28l7.26-36.31-41.19,57.68Z"/></g></g></svg>