<?xml version="1.0" encoding="UTF-8"?>
<svg id="Layer_2" data-name="Layer 2" xmlns="http://www.w3.org/2000/svg" viewBox="0 0 524.91 464.92">
  <defs>
    <style>
      .cls-1 {
        fill: none;
        stroke: currentColor;
        stroke-linecap: round;
        stroke-linejoin: round;
        stroke-width: 32px;
      }
    </style>
  </defs>
  <g id="Layer_1-2" data-name="Layer 1">
    <path fill="currentColor" d="M294.17,151.88l-117.33,145.01h68.49l-16.86,92.69c-.12.69.34,1.34,1.02,1.46.07.01.15.02.22.02h0c.4,0,.77-.19,1.01-.51l117.34-145.04h-68.49l16.94-92.71c.09-.72-.42-1.37-1.14-1.46-.05,0-.11-.01-.17,0h0c-.41,0-.8.2-1.04.54"/>
    <path class="cls-1" d="M242.74,27.39L19.08,414.76c-8.76,15.18,2.19,34.16,19.72,34.16h447.31c17.53,0,28.48-18.98,19.72-34.16L282.18,27.39c-8.76-15.18-30.67-15.18-39.44,0Z"/>
  </g>
</svg>